<?xml version="1.0" encoding="UTF-8" standalone="no"?>
<!DOCTYPE svg PUBLIC "-//W3C//DTD SVG 1.1//EN" "http://www.w3.org/Graphics/SVG/1.1/DTD/svg11.dtd">
<svg width="100%" height="100%" viewBox="0 0 16 16" version="1.1" xmlns="http://www.w3.org/2000/svg" xmlns:xlink="http://www.w3.org/1999/xlink" xml:space="preserve" xmlns:serif="http://www.serif.com/" style="fill-rule:evenodd;clip-rule:evenodd;stroke-linejoin:round;stroke-miterlimit:2;">
    <g transform="matrix(1.8759,0,0,1.8759,-13.6687,-14.299)">
        <path d="M10.301,14.1L8.632,15.214L7.313,13.221L14.364,8.504L15.748,10.466L14.941,11.004C14.461,10.683 13.884,10.495 13.263,10.495C11.597,10.495 10.244,11.848 10.244,13.514C10.244,13.715 10.264,13.911 10.301,14.1ZM10.789,15.243L10.548,15.404L10.02,14.613L10.37,14.379C10.464,14.691 10.606,14.982 10.789,15.243ZM11.813,9.344L11.247,8.496L12.03,7.974L12.837,9.182L12.496,9.409L12.054,9.705L11.813,9.344ZM8.645,11.979L8.381,12.156L7.574,10.947L8.787,10.138L9.352,10.985L9.593,11.347L8.645,11.979ZM9.766,10.709L8.441,8.724L10.034,7.66L11.359,9.646L11.601,10.007L10.007,11.071L9.766,10.709ZM8.194,9.357L8.494,9.808L8.044,10.109L7.743,9.658L8.194,9.357ZM9.818,14.76L10.119,15.211L9.668,15.512L9.367,15.061L9.818,14.76Z" style="fill:url(#_Linear1);"/>
    </g>
    <g transform="matrix(0.651368,0,0,0.651368,6.58503,6.54399)">
        <path d="M8.398,4.468L8.398,4.385C8.398,4.202 8.547,4.053 8.73,4.053L9.655,4.053C9.838,4.053 9.987,4.202 9.987,4.385L9.987,7.322C9.987,8.005 10.548,8.454 11.289,8.454C12.134,8.454 12.662,7.824 12.662,6.92C12.662,3.85 10.115,1.338 7,1.338C3.883,1.338 1.338,3.925 1.338,7.08C1.338,10.15 3.885,12.662 7,12.662C8.498,12.662 9.724,12.043 10.488,11.362C10.624,11.241 10.832,11.252 10.955,11.387L11.679,12.184C11.738,12.249 11.769,12.335 11.765,12.423C11.76,12.511 11.721,12.594 11.656,12.653C10.692,13.524 8.944,14.332 7,14.332C2.962,14.332 -0.332,11.068 -0.332,7.08C-0.332,3.003 2.964,-0.332 7,-0.332C11.038,-0.332 14.332,2.932 14.332,6.92C14.332,8.802 13.117,10.084 11.289,10.084C10.328,10.084 9.535,9.751 9.011,9.199C8.511,9.761 7.756,10.108 6.871,10.108C5.198,10.108 3.932,8.795 3.932,7.04C3.932,5.285 5.198,3.973 6.871,3.973C7.482,3.973 7.998,4.148 8.398,4.468ZM6.96,8.559C7.745,8.559 8.317,7.897 8.317,7.04C8.317,6.183 7.745,5.522 6.96,5.522C6.175,5.522 5.602,6.183 5.602,7.04C5.602,7.897 6.175,8.559 6.96,8.559Z" style="fill:rgb(206,208,214);fill-rule:nonzero;"/>
    </g>
    <defs>
        <linearGradient id="_Linear1" x1="0" y1="0" x2="1" y2="0" gradientUnits="userSpaceOnUse" gradientTransform="matrix(8.43567,0,0,8.2214,7.31251,11.7709)"><stop offset="0" style="stop-color:rgb(223,31,132);stop-opacity:1"/><stop offset="1" style="stop-color:rgb(112,72,149);stop-opacity:1"/></linearGradient>
    </defs>
</svg>
