<?xml version="1.0" encoding="UTF-8" standalone="no"?>
<!DOCTYPE svg PUBLIC "-//W3C//DTD SVG 1.1//EN" "http://www.w3.org/Graphics/SVG/1.1/DTD/svg11.dtd">
<svg width="100%" height="100%" viewBox="0 0 16 16" version="1.1" xmlns="http://www.w3.org/2000/svg" xmlns:xlink="http://www.w3.org/1999/xlink" xml:space="preserve" xmlns:serif="http://www.serif.com/" style="fill-rule:evenodd;clip-rule:evenodd;stroke-linejoin:round;stroke-miterlimit:2;">
    <g transform="matrix(0.574625,0,0,0.574625,4.87585,3.04439)">
        <path d="M18.407,8.669C18.407,10.568 17.183,12.239 15.407,12.833L15.407,17C15.407,19.966 12.966,22.407 10,22.407C7.034,22.407 4.593,19.966 4.593,17L4.593,12C4.593,11.827 4.702,11.673 4.865,11.616C5.029,11.559 5.21,11.611 5.318,11.746L9.309,16.746C9.407,16.868 9.426,17.036 9.358,17.177C9.29,17.318 9.148,17.407 8.991,17.407C8.991,17.407 7.44,17.407 7.44,17.407C7.637,18.639 8.716,19.593 10,19.593C11.422,19.593 12.593,18.422 12.593,17C12.593,17 12.593,12.832 12.593,12.832C10.808,12.229 9.593,10.548 9.593,8.639C9.593,6.203 11.575,4.262 14,4.262C16.446,4.262 18.407,6.234 18.407,8.669ZM14,10.262C14.874,10.262 15.593,9.543 15.593,8.669C15.593,7.795 14.874,7.076 14,7.076C13.126,7.076 12.407,7.795 12.407,8.669C12.407,9.543 13.126,10.262 14,10.262Z" style="fill:rgb(206,208,214);fill-rule:nonzero;"/>
    </g>
    <g transform="matrix(1.8759,0,0,1.8759,-13.6687,-14.299)">
        <path d="M10.602,13.9L8.632,15.214L7.313,13.221L14.364,8.504L15.748,10.466L15.706,10.494C15.299,10.145 14.769,9.934 14.188,9.934C13.068,9.934 12.13,10.718 11.907,11.774C11.768,11.776 11.627,11.801 11.49,11.849C10.958,12.035 10.602,12.537 10.602,13.1L10.602,13.9ZM10.767,15.258L10.548,15.404L10.02,14.613L10.602,14.224L10.602,14.356C10.602,14.672 10.66,14.976 10.767,15.258ZM11.813,9.344L11.247,8.496L12.03,7.974L12.837,9.182L12.496,9.409L12.054,9.705L11.813,9.344ZM8.194,9.357L8.494,9.808L8.044,10.109L7.743,9.658L8.194,9.357ZM8.645,11.979L8.381,12.156L7.574,10.947L8.787,10.138L9.352,10.985L9.593,11.347L8.645,11.979ZM9.766,10.709L8.441,8.724L10.034,7.66L11.359,9.646L11.601,10.007L10.007,11.071L9.766,10.709ZM9.818,14.76L10.119,15.211L9.668,15.512L9.367,15.061L9.818,14.76Z" style="fill:url(#_Linear1);"/>
    </g>
    <defs>
        <linearGradient id="_Linear1" x1="0" y1="0" x2="1" y2="0" gradientUnits="userSpaceOnUse" gradientTransform="matrix(5.05289,-4.81315,4.81315,5.05289,8.91777,14.4862)"><stop offset="0" style="stop-color:rgb(111,73,150);stop-opacity:1"/><stop offset="1" style="stop-color:rgb(229,36,134);stop-opacity:1"/></linearGradient>
    </defs>
</svg>
