<?xml version="1.0" encoding="UTF-8" standalone="no"?>
<!DOCTYPE svg PUBLIC "-//W3C//DTD SVG 1.1//EN" "http://www.w3.org/Graphics/SVG/1.1/DTD/svg11.dtd">
<svg width="100%" height="100%" viewBox="0 0 16 16" version="1.1" xmlns="http://www.w3.org/2000/svg" xmlns:xlink="http://www.w3.org/1999/xlink" xml:space="preserve" xmlns:serif="http://www.serif.com/" style="fill-rule:evenodd;clip-rule:evenodd;stroke-linejoin:round;stroke-miterlimit:2;">
    <g transform="matrix(1.00707,0,0,1.01237,0,0)">
        <path d="M2.852,12.707C3.992,12.443 4.843,11.422 4.843,10.201L4.843,7.934C4.843,7.763 4.826,7.595 4.794,7.433L10.81,3.41C11.621,3.926 12.283,4.655 12.719,5.517C11.731,5.877 11.025,6.823 11.025,7.934L11.025,7.942L3.168,13.185L2.852,12.707ZM3.45,4.998L4.336,6.327L4.727,6.913L4.653,6.963C4.38,6.293 3.832,5.765 3.15,5.517C3.24,5.338 3.341,5.165 3.45,4.998ZM6.64,2.73L7.591,4.155L7.982,4.741L5.398,6.466L5.007,5.879L3.97,4.326C4.672,3.555 5.596,2.989 6.64,2.73ZM9.611,2.841L9.987,3.403L9.435,3.771L8.717,4.251L8.326,3.664L7.604,2.583C7.713,2.576 7.823,2.573 7.934,2.573C8.52,2.573 9.084,2.667 9.611,2.841ZM12.961,12.694L10.604,14.267L8.435,11.016L8.056,10.449L10.641,8.725L11.025,9.301L11.025,10.201C11.025,11.402 11.849,12.41 12.961,12.694ZM7.764,11.464L8.242,12.18L6.275,13.492L5.419,12.209L5.848,11.923L7.386,10.897L7.764,11.464ZM5.091,12.449L5.579,13.18L4.848,13.668L4.36,12.937L5.091,12.449Z" style="fill:url(#_Linear1);"/>
    </g>
    <g transform="matrix(1.14149,0,0,1.14749,0,0)">
        <path d="M1.083,6C1.559,3.162 4.027,1 7,1C9.973,1 12.441,3.162 12.917,6L12,6C11.448,6 11,6.448 11,7L11,9C11,9.552 11.448,10 12,10L13,10C13.552,10 14,9.552 14,9L14,7C14,3.134 10.866,0 7,0C3.134,0 0,3.134 0,7L0,9C0,9.552 0.448,10 1,10L2,10C2.552,10 3,9.552 3,9L3,7C3,6.448 2.552,6 2,6L1.083,6ZM1,7L1,9L2,9L2,7L1,7ZM13,7L12,7L12,9L13,9L13,7Z" style="fill:rgb(206,208,214);"/>
    </g>
    <defs>
        <linearGradient id="_Linear1" x1="0" y1="0" x2="1" y2="0" gradientUnits="userSpaceOnUse" gradientTransform="matrix(-7.89382,7.38097,-7.41978,-7.85253,11.5376,5.20195)"><stop offset="0" style="stop-color:rgb(176,23,119);stop-opacity:1"/><stop offset="1" style="stop-color:rgb(110,76,154);stop-opacity:1"/></linearGradient>
    </defs>
</svg>
