<?xml version="1.0" encoding="UTF-8" standalone="no"?>
<!DOCTYPE svg PUBLIC "-//W3C//DTD SVG 1.1//EN" "http://www.w3.org/Graphics/SVG/1.1/DTD/svg11.dtd">
<svg width="100%" height="100%" viewBox="0 0 16 16" version="1.1" xmlns="http://www.w3.org/2000/svg" xml:space="preserve" style="fill-rule:evenodd;clip-rule:evenodd;">
    <g>
        <clipPath id="_clip1">
            <path d="M10.371,16.051L-8.061,33.508L-27.094,13.413L14.397,-25.883L33.43,-5.788L16.355,10.384L14.516,7.776L13.156,8.686L12.19,7.238L10.952,8.064L10.192,6.924L7.731,8.567L7.947,8.891L7.032,9.502L7.576,10.317L6.863,10.793L7.833,12.246L6.603,13.069L8.498,15.932L9.08,15.544L9.537,16.229L10.197,15.789L10.371,16.051Z" />
        </clipPath>
		<g clip-path="url(#_clip1)">
            <circle cx="8" cy="8" r="6.5" style="fill:rgb(69,50,43);stroke:rgb(199,125,85);stroke-width:1px;" />
			<path d="M8.162,5C8.614,5 9.013,5.082 9.358,5.247C9.707,5.412 9.977,5.654 10.168,5.972C10.36,6.286 10.456,6.658 10.456,7.087L10.456,11.026L9.427,11.026L9.427,8.824L9.691,8.824C9.691,9.311 9.605,9.73 9.432,10.083C9.264,10.432 9.02,10.7 8.702,10.888C8.384,11.072 8.006,11.164 7.569,11.164C7.19,11.164 6.849,11.091 6.546,10.945C6.247,10.8 6.011,10.599 5.839,10.342C5.666,10.085 5.58,9.794 5.58,9.468C5.58,9.157 5.66,8.872 5.821,8.611C5.982,8.35 6.205,8.138 6.488,7.973C6.772,7.804 7.092,7.701 7.449,7.662L9.013,7.496C9.139,7.48 9.237,7.43 9.306,7.346C9.379,7.258 9.415,7.128 9.415,6.955L9.484,8.191L7.638,8.398C7.451,8.417 7.282,8.471 7.132,8.559C6.987,8.647 6.874,8.764 6.793,8.91C6.713,9.052 6.672,9.209 6.672,9.382C6.672,9.569 6.722,9.736 6.822,9.882C6.922,10.027 7.06,10.141 7.236,10.221C7.412,10.302 7.615,10.342 7.845,10.342C8.16,10.342 8.434,10.278 8.668,10.152C8.905,10.025 9.089,9.847 9.22,9.617C9.35,9.387 9.415,9.123 9.415,8.824L9.415,6.967C9.415,6.748 9.362,6.556 9.254,6.392C9.147,6.223 8.997,6.093 8.806,6.001C8.618,5.909 8.397,5.863 8.144,5.863C7.895,5.863 7.669,5.907 7.466,5.995C7.267,6.079 7.106,6.194 6.983,6.34C6.864,6.482 6.791,6.637 6.764,6.806L5.712,6.806C5.758,6.461 5.89,6.152 6.109,5.88C6.331,5.604 6.621,5.389 6.977,5.236C7.334,5.079 7.729,5 8.162,5Z" style="fill:rgb(199,125,85);fill-rule:nonzero;" />
        </g>
    </g>
	<g transform="matrix(0.0331037,0,0,0.0331037,7.29644,7.63488)">
        <path d="M16.202,139.307L-13.094,95.409L8.45,81.032L-7.986,56.402L19.665,37.95L13.12,28.143L87.459,-21.465L110.44,12.971L147.828,-11.983L177.013,31.749L218.094,4.273L278.076,89.309L234.728,118.235L255.22,148.944L217.829,173.896L249.381,221.178L175.043,270.787L143.49,223.504L94.296,256.333L87.608,246.311L67.685,259.606L53.876,238.914L36.307,250.638L-20.942,164.151L16.202,139.307Z" style="fill:none;" />
    </g>
	<g>
        <g transform="matrix(0.0330617,0,0,0.0330617,7.28633,7.64937)">
            <path d="M167.876,46.369L144.196,62.173L119.801,25.615L143.481,9.81L167.876,46.369Z" style="fill:url(#_Linear2);fill-rule:nonzero;" />
        </g>
		<g transform="matrix(0.0330617,0,0,0.0330617,7.28633,7.64937)">
            <path d="M187.129,156.199L227.589,216.83L179.391,248.995L138.93,188.363L131.872,177.787L180.071,145.622L187.129,156.199Z" style="fill:url(#_Linear3);fill-rule:nonzero;" />
        </g>
		<g transform="matrix(0.0330617,0,0,0.0330617,7.28633,7.64937)">
            <path d="M126.422,196.71L135.33,210.059L98.644,234.541L82.677,210.615L90.692,205.267L119.364,186.133L126.422,196.71Z" style="fill:url(#_Linear4);fill-rule:nonzero;" />
        </g>
		<g transform="matrix(0.0330617,0,0,0.0330617,7.28633,7.64937)">
            <path d="M207.172,127.537L217.462,120.67L233.428,144.596L209.745,160.401L200.837,147.052L214.23,138.114L207.172,127.537ZM200.837,147.052L193.779,136.475L207.172,127.537L214.23,138.114L200.837,147.052Z" style="fill:url(#_Linear5);fill-rule:nonzero;" />
        </g>
		<g transform="matrix(0.0330617,0,0,0.0330617,7.28633,7.64937)">
            <path d="M41.109,130.967L33.095,136.315L8.698,99.756L45.385,75.274L62.486,100.901L33.814,120.035L62.486,100.901L69.782,111.834L41.109,130.967Z" style="fill:url(#_Linear6);fill-rule:nonzero;" />
        </g>
		<g transform="matrix(0.0330617,0,0,0.0330617,7.28633,7.64937)">
            <path d="M130.489,71.322L82.289,103.487L74.994,92.554L34.912,32.491L83.111,0.326L123.193,60.389L130.489,71.322Z" style="fill:url(#_Linear7);fill-rule:nonzero;" />
        </g>
		<g transform="matrix(0.0330617,0,0,0.0330617,7.28633,7.64937)">
            <path d="M157.59,53.238L144.197,62.175L136.9,51.242L119.8,25.616L143.483,9.811L167.88,46.37L157.59,53.238Z" style="fill:url(#_Linear8);fill-rule:nonzero;" />
        </g>
		<g transform="matrix(0.0330617,0,0,0.0330617,7.28633,7.64937)">
            <path d="M97.75,215.844L90.692,205.267L119.364,186.133L126.422,196.71L97.75,215.844Z" style="fill:rgb(113,72,150);fill-rule:nonzero;" />
        </g>
		<g transform="matrix(0.0330617,0,0,0.0330617,7.28633,7.64937)">
            <path d="M200.837,147.052L193.779,136.475L207.172,127.537L214.23,138.114L200.837,147.052Z" style="fill:rgb(111,71,149);fill-rule:nonzero;" />
        </g>
		<g transform="matrix(0.0330617,0,0,0.0330617,7.28633,7.64937)">
            <path d="M41.109,130.967L33.814,120.035L62.485,100.901L69.782,111.834L41.109,130.967Z" style="fill:rgb(136,81,159);fill-rule:nonzero;" />
        </g>
		<g transform="matrix(0.0330617,0,0,0.0330617,7.28633,7.64937)">
            <path d="M144.197,62.175L136.9,51.242L150.295,42.304L157.59,53.238L144.197,62.175Z" style="fill:rgb(133,80,158);fill-rule:nonzero;" />
        </g>
		<g transform="matrix(0.0330617,0,0,0.0330617,7.28633,7.64937)">
            <path d="M187.129,156.199L138.93,188.363L131.872,177.787L180.071,145.622L187.129,156.199Z" style="fill:rgb(141,22,106);fill-rule:nonzero;" />
        </g>
		<g transform="matrix(0.0330617,0,0,0.0330617,7.28633,7.64937)">
            <path d="M123.193,60.389L130.489,71.322L82.289,103.487L74.994,92.554L123.193,60.389Z" style="fill:rgb(167,13,111);fill-rule:nonzero;" />
        </g>
		<g transform="matrix(0.0330617,0,0,0.0330617,7.28633,7.64937)">
            <path d="M27.439,51.653L36.536,65.286L22.903,74.383L13.806,60.75L27.439,51.653Z" style="fill:rgb(158,97,173);fill-rule:nonzero;" />
        </g>
		<g transform="matrix(0.0330617,0,0,0.0330617,7.28633,7.64937)">
            <path d="M76.568,215.084L85.665,228.717L72.033,237.814L62.935,224.182L76.568,215.084Z" style="fill:rgb(128,83,163);fill-rule:nonzero;" />
        </g>
		<g transform="matrix(0.0330617,0,0,0.0330617,7.28633,7.64937)">
            <path d="M40.704,228.814L0.792,168.518L214.089,25.856L255.941,85.189L40.704,228.814Z" style="fill:url(#_Linear9);fill-rule:nonzero;" />
        </g>
    </g>
	<defs>
        <linearGradient id="_Linear2" x1="0" y1="0" x2="1" y2="0" gradientUnits="userSpaceOnUse" gradientTransform="matrix(300.873,253.614,-253.614,300.873,-66.804,-49.716)"><stop offset="0" style="stop-color:rgb(192,111,187);stop-opacity:1"/>
			<stop offset="1" style="stop-color:rgb(110,77,155);stop-opacity:1" /></linearGradient>
		<linearGradient id="_Linear3" x1="0" y1="0" x2="1" y2="0" gradientUnits="userSpaceOnUse" gradientTransform="matrix(-162.717,-205.728,205.728,-162.717,201.693,227.819)"><stop offset="0" style="stop-color:rgb(110,77,155);stop-opacity:1"/>
			<stop offset="0.14" style="stop-color:rgb(119,50,122);stop-opacity:1" />
			<stop offset="0.29" style="stop-color:rgb(179,23,119);stop-opacity:1" />
			<stop offset="0.84" style="stop-color:rgb(205,15,126);stop-opacity:1" />
			<stop offset="1" style="stop-color:rgb(237,44,137);stop-opacity:1" /></linearGradient>
		<linearGradient id="_Linear4" x1="0" y1="0" x2="1" y2="0" gradientUnits="userSpaceOnUse" gradientTransform="matrix(254.309,384.992,-384.992,254.309,-39.5907,-149.624)"><stop offset="0" style="stop-color:rgb(192,111,187);stop-opacity:1"/>
			<stop offset="1" style="stop-color:rgb(110,77,155);stop-opacity:1" /></linearGradient>
		<linearGradient id="_Linear5" x1="0" y1="0" x2="1" y2="0" gradientUnits="userSpaceOnUse" gradientTransform="matrix(366.032,299.645,-299.645,366.032,-131.816,-64.8437)"><stop offset="0" style="stop-color:rgb(192,111,187);stop-opacity:1"/>
			<stop offset="1" style="stop-color:rgb(110,77,155);stop-opacity:1" /></linearGradient>
		<linearGradient id="_Linear6" x1="0" y1="0" x2="1" y2="0" gradientUnits="userSpaceOnUse" gradientTransform="matrix(341.209,300.873,-300.873,341.209,-76.8764,-65.685)"><stop offset="0" style="stop-color:rgb(192,111,187);stop-opacity:1"/>
			<stop offset="1" style="stop-color:rgb(110,77,155);stop-opacity:1" /></linearGradient>
		<linearGradient id="_Linear7" x1="0" y1="0" x2="1" y2="0" gradientUnits="userSpaceOnUse" gradientTransform="matrix(-163.174,-206.808,206.808,-163.174,217.543,232.507)"><stop offset="0" style="stop-color:rgb(110,77,155);stop-opacity:1"/>
			<stop offset="0.14" style="stop-color:rgb(119,50,122);stop-opacity:1" />
			<stop offset="0.29" style="stop-color:rgb(179,23,119);stop-opacity:1" />
			<stop offset="0.84" style="stop-color:rgb(205,15,126);stop-opacity:1" />
			<stop offset="1" style="stop-color:rgb(237,44,137);stop-opacity:1" /></linearGradient>
		<linearGradient id="_Linear8" x1="0" y1="0" x2="1" y2="0" gradientUnits="userSpaceOnUse" gradientTransform="matrix(300.873,305.873,-305.873,300.873,-66.7978,-62.8316)"><stop offset="0" style="stop-color:rgb(192,111,187);stop-opacity:1"/>
			<stop offset="1" style="stop-color:rgb(110,77,155);stop-opacity:1" /></linearGradient>
		<linearGradient id="_Linear9" x1="0" y1="0" x2="1" y2="0" gradientUnits="userSpaceOnUse" gradientTransform="matrix(199.822,-158.46,158.46,199.822,30.1428,207.813)"><stop offset="0" style="stop-color:rgb(110,77,155);stop-opacity:1"/>
			<stop offset="0.14" style="stop-color:rgb(119,50,122);stop-opacity:1" />
			<stop offset="0.53" style="stop-color:rgb(179,23,119);stop-opacity:1" />
			<stop offset="0.79" style="stop-color:rgb(205,15,126);stop-opacity:1" />
			<stop offset="1" style="stop-color:rgb(237,44,137);stop-opacity:1" /></linearGradient>
    </defs>
</svg>
